FFmpeg version SVN-r25716, Copyright (c) 2000-2010 the FFmpeg developers  built on Nov 10 2010 12:23:18 with gcc 4.1.2 20080704 (Red Hat 4.1.2-48)  configuration: --enable-libmp3lame --enable-shared --disable-mmx --arch=x86_64  libavutil     50.33. 0 / 50.33. 0  libavcore      0.12. 1 /  0.12. 1  libavcodec    52.94. 4 / 52.94. 4  libavformat   52.84. 0 / 52.84. 0  libavdevice   52. 2. 2 / 52. 2. 2  libavfilter    1.59. 0 /  1.59. 0  libswscale     0.12. 0 /  0.12. 0Input #0, avi, from '/RAID10/data/converted_video_files/47574.avi':  Duration: 00:00:01.33, start: 0.000000, bitrate: 283109 kb/s    Stream #0.0: Video: msvideo1, rgb555le, 1024x1024, 30 tbr, 30 tbn, 30 tbc[buffer @ 0x16123b40] w:1024 h:1024 pixfmt:rgb555le[ffsink @ 0x1615dec0] auto-inserting filter 'auto-inserted scaler 0' between the filter 'src' and the filter 'out'[scale @ 0x1615e1e0] w:1024 h:1024 fmt:rgb555le -> w:1024 h:1024 fmt:yuv420p flags:0x4Output #0, flv, to '/RAID10/data/converted_video_files/47574.flv':  Metadata:    encoder         : Lavf52.84.0    Stream #0.0: Video: flv, yuv420p, 1024x1024, q=2-31, 600 kb/s, 1k tbn, 24 tbcStream mapping:  Stream #0.0 -> #0.0Press [q] to stop encodingframe=    6 fps=  0 q=6.8 size=     689kB time=0.25 bitrate=22569.7kbits/s dup=0 drop=1    frame=   12 fps= 10 q=24.2 size=     714kB time=0.50 bitrate=11691.7kbits/s dup=0 drop=3    frame=   20 fps= 12 q=31.0 size=     750kB time=0.83 bitrate=7379.1kbits/s dup=0 drop=4    frame=   27 fps= 12 q=31.0 size=     792kB time=1.12 bitrate=5765.2kbits/s dup=0 drop=6    frame=   32 fps= 13 q=31.0 Lsize=     798kB time=1.33 bitrate=4901.1kbits/s dup=0 drop=8    video:797kB audio:0kB global headers:0kB muxing overhead 0.088488%